# xmcd CD database file
#
# Track frame offsets:
#	150
#	21595
#	50539
#	68620
#	91536
#	121719
#	195478
#	220522
#	255121
#
# Disc length: 3803 seconds
#
# Revision: 0
# Processed by: cddbd v1.5.2PL0 Copyright (c) Steve Scherf et al.
# Submitted via: CDex 1.51
#
DISCID=660ed909
DTITLE=ERIC CLAPTON - STEVE WINWOOD - Live From Medisos Square Garden
DYEAR=2009
DGENRE=Blues
TTITLE0=After Midnight
TTITLE1=Split Decision
TTITLE2=Rambling On My Mind
TTITLE3=Georgia On My Mind
TTITLE4=Little Wing
TTITLE5=Voodoo Chile
TTITLE6=Can't Find My Way Home
TTITLE7=Dear Mr. Fantasy
TTITLE8=Cocaine
EXTD=YEAR: 2009
EXTT0=
EXTT1=
EXTT2=
EXTT3=
EXTT4=
EXTT5=
EXTT6=
EXTT7=
EXTT8=
PLAYORDER=
